<svg viewBox="0 0 1200 800" xmlns="http://www.w3.org/2000/svg">
  <!-- Proposta 2: Layout com Sub-Abas (Stencils | Visualização) dentro de "Medição de Tensão" -->
  <!-- Aba principal única com duas sub-abas para navegação rápida -->

  <!-- Fundo -->
  <rect width="1200" height="800" fill="#1B2633"/>

  <!-- Título da Aba Principal -->
  <text x="20" y="35" font-family="Segoe UI, Arial" font-size="18" font-weight="bold" fill="#FFFFFF">📊 Medição de Tensão</text>

  <!-- Sub-Abas de Navegação -->
  <g transform="translate(0, 50)">
    <!-- Container das sub-abas -->
    <rect x="10" y="0" width="1180" height="40" fill="#1F2937" rx="6"/>

    <!-- Sub-aba 1 - Stencils (ATIVA) -->
    <rect x="20" y="5" width="150" height="30" fill="#059669" rx="4"/>
    <text x="95" y="26" font-family="Segoe UI, Arial" font-size="13" font-weight="bold" fill="#FFFFFF" text-anchor="middle">📋 Stencils</text>

    <!-- Sub-aba 2 - Visualização -->
    <rect x="180" y="5" width="180" height="30" fill="#374151" rx="4"/>
    <text x="270" y="26" font-family="Segoe UI, Arial" font-size="13" fill="#D1D5DB" text-anchor="middle">📈 Visualização Gráfica</text>
  </g>

  <!-- ==================== CONTEÚDO DA SUB-ABA STENCILS ==================== -->
  <g transform="translate(10, 100)">
    <!-- Fundo do conteúdo -->
    <rect width="1180" height="650" fill="#1F2937" stroke="#374151" stroke-width="1" rx="6"/>

    <!-- ==================== LINHA SUPERIOR - FILTROS + AÇÕES RÁPIDAS ==================== -->
    <g transform="translate(10, 10)">
      <!-- Barra de Filtros -->
      <rect x="0" y="0" width="700" height="45" fill="#2D3748" rx="6"/>
      <text x="15" y="28" font-family="Segoe UI, Arial" font-size="13" fill="#9CA3AF">Buscar:</text>
      <rect x="60" y="12" width="200" height="24" fill="#1B2633" rx="3"/>
      <text x="70" y="28" font-family="Segoe UI, Arial" font-size="11" fill="#6B7280">Buscar programas...</text>

      <text x="280" y="28" font-family="Segoe UI, Arial" font-size="13" fill="#9CA3AF">Período:</text>
      <rect x="330" y="12" width="100" height="24" fill="#1B2633" rx="3"/>
      <text x="340" y="28" font-family="Segoe UI, Arial" font-size="11" fill="#D1D5DB">Últimas 10</text>

      <text x="450" y="28" font-family="Segoe UI, Arial" font-size="13" fill="#9CA3AF">Status:</text>
      <rect x="500" y="12" width="110" height="24" fill="#1B2633" rx="3"/>
      <text x="510" y="28" font-family="Segoe UI, Arial" font-size="11" fill="#D1D5DB">Todos</text>

      <text x="630" y="28" font-family="Segoe UI, Arial" font-size="13" fill="#9CA3AF">Ordenar:</text>
      <rect x="690" y="12" width="130" height="24" fill="#1B2633" rx="3"/>
      <text x="700" y="28" font-family="Segoe UI, Arial" font-size="11" fill="#D1D5DB">Mais recentes</text>

      <!-- Ações Rápidas -->
      <rect x="840" y="0" width="330" height="45" fill="#2D3748" rx="6"/>
      <text x="855" y="28" font-family="Segoe UI, Arial" font-size="12" font-weight="bold" fill="#9CA3AF">AÇÕES:</text>

      <rect x="910" y="8" width="110" height="30" fill="#059669" rx="4"/>
      <text x="965" y="28" font-family="Segoe UI, Arial" font-size="11" font-weight="bold" fill="#FFFFFF" text-anchor="middle">+ Novo Stencil</text>

      <rect x="1030" y="8" width="130" height="30" fill="#0891b2" rx="4"/>
      <text x="1095" y="28" font-family="Segoe UI, Arial" font-size="11" font-weight="bold" fill="#FFFFFF" text-anchor="middle">📁 Carregar JSON</text>
    </g>

    <!-- ==================== ÁREA PRINCIPAL - LISTA + VISUALIZAÇÃO RESUMO ==================== -->
    <g transform="translate(10, 65)">
      <!-- Lista de Stencils (60% da largura) -->
      <g>
        <rect x="0" y="0" width="700" height="480" fill="#1B2633" rx="6"/>

        <!-- Header -->
        <rect x="0" y="0" width="700" height="35" fill="#374151" rx="6"/>
        <text x="15" y="23" font-family="Segoe UI, Arial" font-size="12" font-weight="bold" fill="#FFFFFF">Código</text>
        <text x="100" y="23" font-family="Segoe UI, Arial" font-size="12" font-weight="bold" fill="#FFFFFF">Descrição</text>
        <text x="400" y="23" font-family="Segoe UI, Arial" font-size="12" font-weight="bold" fill="#FFFFFF">Status</text>
        <text x="480" y="23" font-family="Segoe UI, Arial" font-size="12" font-weight="bold" fill="#FFFFFF">Tensão Média</text>
        <text x="600" y="23" font-family="Segoe UI, Arial" font-size="12" font-weight="bold" fill="#FFFFFF">Última</text>

        <!-- Items -->
        <rect x="0" y="35" width="700" height="45" fill="#2D3748" opacity="0.5"/>
        <text x="15" y="62" font-family="Segoe UI, Arial" font-size="12" fill="#FFFFFF">STN-001</text>
        <text x="100" y="62" font-family="Segoe UI, Arial" font-size="12" fill="#D1D5DB">Stencil PCB A</text>
        <circle cx="410" cy="57" r="7" fill="#10B981"/>
        <text x="425" y="62" font-family="Segoe UI, Arial" font-size="11" fill="#10B981">Ativo</text>
        <text x="480" y="62" font-family="Segoe UI, Arial" font-size="12" fill="#10B981" font-weight="bold">38.5 N/cm²</text>
        <text x="600" y="62" font-family="Segoe UI, Arial" font-size="11" fill="#9CA3AF">28/03 14:30</text>

        <rect x="0" y="80" width="700" height="45" fill="#1B2633"/>
        <text x="15" y="107" font-family="Segoe UI, Arial" font-size="12" fill="#FFFFFF">STN-002</text>
        <text x="100" y="107" font-family="Segoe UI, Arial" font-size="12" fill="#D1D5DB">Stencil PCB B</text>
        <circle cx="410" cy="102" r="7" fill="#F59E0B"/>
        <text x="425" y="107" font-family="Segoe UI, Arial" font-size="11" fill="#F59E0B">Alerta</text>
        <text x="480" y="107" font-family="Segoe UI, Arial" font-size="12" fill="#F59E0B" font-weight="bold">27.2 N/cm²</text>
        <text x="600" y="107" font-family="Segoe UI, Arial" font-size="11" fill="#9CA3AF">27/03 09:15</text>

        <rect x="0" y="125" width="700" height="45" fill="#1B2633"/>
        <text x="15" y="152" font-family="Segoe UI, Arial" font-size="12" fill="#FFFFFF">STN-003</text>
        <text x="100" y="152" font-family="Segoe UI, Arial" font-size="12" fill="#D1D5DB">Stencil PCB C</text>
        <circle cx="410" cy="147" r="7" fill="#10B981"/>
        <text x="425" y="147" font-family="Segoe UI, Arial" font-size="11" fill="#10B981">Ativo</text>
        <text x="480" y="147" font-family="Segoe UI, Arial" font-size="12" fill="#10B981" font-weight="bold">40.1 N/cm²</text>
        <text x="600" y="147" font-family="Segoe UI, Arial" font-size="11" fill="#9CA3AF">26/03 16:45</text>

        <rect x="0" y="170" width="700" height="45" fill="#1B2633"/>
        <text x="15" y="197" font-family="Segoe UI, Arial" font-size="12" fill="#FFFFFF">STN-004</text>
        <text x="100" y="197" font-family="Segoe UI, Arial" font-size="12" fill="#D1D5DB">Stencil PCB D</text>
        <circle cx="410" cy="192" r="7" fill="#EF4444"/>
        <text x="425" y="197" font-family="Segoe UI, Arial" font-size="11" fill="#EF4444">Retirado</text>
        <text x="480" y="197" font-family="Segoe UI, Arial" font-size="12" fill="#9CA3AF">--</text>
        <text x="600" y="197" font-family="Segoe UI, Arial" font-size="11" fill="#9CA3AF">15/03 11:00</text>

        <rect x="0" y="215" width="700" height="45" fill="#1B2633"/>
        <text x="15" y="242" font-family="Segoe UI, Arial" font-size="12" fill="#FFFFFF">STN-005</text>
        <text x="100" y="242" font-family="Segoe UI, Arial" font-size="12" fill="#D1D5DB">Stencil PCB E</text>
        <circle cx="410" cy="237" r="7" fill="#10B981"/>
        <text x="425" y="242" font-family="Segoe UI, Arial" font-size="11" fill="#10B981">Ativo</text>
        <text x="480" y="242" font-family="Segoe UI, Arial" font-size="12" fill="#10B981" font-weight="bold">35.8 N/cm²</text>
        <text x="600" y="242" font-family="Segoe UI, Arial" font-size="11" fill="#9CA3AF">25/03 08:30</text>
      </g>

      <!-- Mini Visualização / Preview (40% da largura) -->
      <g transform="translate(720, 0)">
        <rect x="0" y="0" width="450" height="480" fill="#2D3748" rx="6"/>

        <!-- Header do preview -->
        <text x="15" y="25" font-family="Segoe UI, Arial" font-size="13" font-weight="bold" fill="#FFFFFF">📊 Preview - STN-001 Selecionado</text>

        <!-- Mini heatmap -->
        <g transform="translate(25, 45)">
          <rect x="0" y="0" width="400" height="280" fill="#1B2633" rx="4"/>

          <!-- Grid simplificado -->
          <line x1="133" y1="0" x2="133" y2="280" stroke="#374151" stroke-width="1"/>
          <line x1="266" y1="0" x2="266" y2="280" stroke="#374151" stroke-width="1"/>
          <line x1="0" y1="93" x2="400" y2="93" stroke="#374151" stroke-width="1"/>
          <line x1="0" y1="186" x2="400" y2="186" stroke="#374151" stroke-width="1"/>

          <!-- Pontos -->
          <circle cx="66" cy="46" r="15" fill="#10B981" opacity="0.8"/>
          <text x="66" y="52" font-family="Arial" font-size="9" font-weight="bold" fill="#FFFFFF" text-anchor="middle">38.2</text>

          <circle cx="200" cy="46" r="15" fill="#10B981" opacity="0.8"/>
          <text x="200" y="52" font-family="Arial" font-size="9" font-weight="bold" fill="#FFFFFF" text-anchor="middle">36.5</text>

          <circle cx="333" cy="46" r="15" fill="#10B981" opacity="0.8"/>
          <text x="333" y="52" font-family="Arial" font-size="9" font-weight="bold" fill="#FFFFFF" text-anchor="middle">39.1</text>

          <circle cx="66" cy="140" r="15" fill="#10B981" opacity="0.8"/>
          <text x="66" y="146" font-family="Arial" font-size="9" font-weight="bold" fill="#FFFFFF" text-anchor="middle">37.8</text>

          <circle cx="200" cy="140" r="15" fill="#10B981" opacity="0.8"/>
          <text x="200" y="146" font-family="Arial" font-size="9" font-weight="bold" fill="#FFFFFF" text-anchor="middle">40.2</text>

          <circle cx="333" cy="140" r="15" fill="#10B981" opacity="0.8"/>
          <text x="333" y="146" font-family="Arial" font-size="9" font-weight="bold" fill="#FFFFFF" text-anchor="middle">35.9</text>

          <circle cx="66" cy="233" r="15" fill="#F59E0B" opacity="0.8"/>
          <text x="66" y="239" font-family="Arial" font-size="9" font-weight="bold" fill="#FFFFFF" text-anchor="middle">27.5</text>

          <circle cx="200" cy="233" r="15" fill="#10B981" opacity="0.8"/>
          <text x="200" y="239" font-family="Arial" font-size="9" font-weight="bold" fill="#FFFFFF" text-anchor="middle">38.7</text>

          <circle cx="333" cy="233" r="15" fill="#10B981" opacity="0.8"/>
          <text x="333" y="239" font-family="Arial" font-size="9" font-weight="bold" fill="#FFFFFF" text-anchor="middle">36.4</text>
        </g>

        <!-- Estatísticas rápidas -->
        <rect x="15" y="340" width="420" height="70" fill="#1B2633" rx="4"/>
        <text x="25" y="365" font-family="Segoe UI, Arial" font-size="11" fill="#9CA3AF">RESULTADO:</text>
        <rect x="110" y="350" width="100" height="30" fill="#10B981" rx="4"/>
        <text x="160" y="370" font-family="Segoe UI, Arial" font-size="12" font-weight="bold" fill="#FFFFFF" text-anchor="middle">✅ APROVADO</text>

        <text x="25" y="395" font-family="Segoe UI, Arial" font-size="11" fill="#D1D5DB">
          🟢 OK: 8 (89%) | 🟡 WARN: 1 (11%) | Média: 36.7 N/cm²
        </text>

        <!-- Botões de ação -->
        <g transform="translate(15, 425)">
          <rect x="0" y="0" width="130" height="35" fill="#059669" rx="4"/>
          <text x="65" y="23" font-family="Segoe UI, Arial" font-size="12" font-weight="bold" fill="#FFFFFF" text-anchor="middle">Ver Completo</text>

          <rect x="145" y="0" width="130" height="35" fill="#4B5563" rx="4"/>
          <text x="210" y="23" font-family="Segoe UI, Arial" font-size="12" font-weight="bold" fill="#FFFFFF" text-anchor="middle">📜 Histórico</text>

          <rect x="290" y="0" width="145" height="35" fill="#0891b2" rx="4"/>
          <text x="362" y="23" font-family="Segoe UI, Arial" font-size="12" font-weight="bold" fill="#FFFFFF" text-anchor="middle">📈 Análise Detalhada</text>
        </g>
      </g>
    </g>

    <!-- ==================== LINHA INFERIOR - DETALHES DO SELECIONADO ==================== -->
    <g transform="translate(10, 555)">
      <rect x="0" y="0" width="1170" height="90" fill="#2D3748" rx="6"/>

      <text x="15" y="25" font-family="Segoe UI, Arial" font-size="13" font-weight="bold" fill="#FFFFFF">Stencil Selecionado: STN-001 - PCB A</text>

      <text x="15" y="50" font-family="Segoe UI, Arial" font-size="11" fill="#9CA3AF">Receita:</text>
      <text x="65" y="50" font-family="Segoe UI, Arial" font-size="11" fill="#D1D5DB">recipe_pcb_a_v2.json</text>

      <text x="250" y="50" font-family="Segoe UI, Arial" font-size="11" fill="#9CA3AF">Criado em:</text>
      <text x="310" y="50" font-family="Segoe UI, Arial" font-size="11" fill="#D1D5DB">15/01/2026</text>

      <text x="450" y="50" font-family="Segoe UI, Arial" font-size="11" fill="#9CA3AF">Total Medições:</text>
      <text x="545" y="50" font-family="Segoe UI, Arial" font-size="11" fill="#FFFFFF" font-weight="bold">47</text>

      <text x="650" y="50" font-family="Segoe UI, Arial" font-size="11" fill="#9CA3AF">Última:</text>
      <text x="700" y="50" font-family="Segoe UI, Arial" font-size="11" fill="#D1D5DB">28/03/2026 14:30</text>

      <text x="15" y="75" font-family="Segoe UI, Arial" font-size="11" fill="#9CA3AF">Observações:</text>
      <text x="85" y="75" font-family="Segoe UI, Arial" font-size="11" fill="#D1D5DB" font-style="italic">Nenhuma observação registrada.</text>
    </g>
  </g>

  <!-- Hardware Status Bar -->
  <g transform="translate(10, 765)">
    <rect width="230" height="25" fill="#EF444420" rx="4"/>
    <circle cx="15" cy="12.5" r="6" fill="#EF4444"/>
    <text x="28" y="17" font-family="Segoe UI, Arial" font-size="11" fill="#EF4444">CLP: Desconectado</text>

    <rect x="240" width="280" height="25" fill="#EF444420" rx="4"/>
    <circle cx="255" cy="12.5" r="6" fill="#EF4444"/>
    <text x="268" y="17" font-family="Segoe UI, Arial" font-size="11" fill="#EF4444">Tensiômetro: Desconectado</text>

    <rect x="530" width="250" height="25" fill="#EF444420" rx="4"/>
    <circle cx="545" cy="12.5" r="6" fill="#EF4444"/>
    <text x="558" y="17" font-family="Segoe UI, Arial" font-size="11" fill="#EF4444">Câmera: Desconectada</text>
  </g>

  <!-- Label da Proposta -->
  <text x="1190" y="790" font-family="Segoe UI, Arial" font-size="14" font-weight="bold" fill="#6B7280" text-anchor="end">PROPOSTA 2: Sub-Abas com Preview Integrado</text>
</svg>
